PathFileType	3	(X/Y/Z)	E:\ViconData\BIOM9541 2025\Week 7\Wed1100\Hanif 90 squat 2-5 Squat 01.trc
DataRate	CameraRate	NumFrames	NumMarkers	Units	OrigDataRate	OrigDataStartFrame	OrigNumFrames
200.0	200.0	13	19	mm	200.0	367	1467	
Frame#	Time	C7			CLAV			RBAK			LASI			RASI			LPSI			RPSI			LTHI			LKNE			LTIB			LANK			LHEE			LTOE			RTHI			RKNE			RTIB			RANK			RHEE			RTOE			
		X1	Y1	Z1	X2	Y2	Z2	X3	Y3	Z3	X4	Y4	Z4	X5	Y5	Z5	X6	Y6	Z6	X7	Y7	Z7	X8	Y8	Z8	X9	Y9	Z9	X10	Y10	Z10	X11	Y11	Z11	X12	Y12	Z12	X13	Y13	Z13	X14	Y14	Z14	X15	Y15	Z15	X16	Y16	Z16	X17	Y17	Z17	X18	Y18	Z18	X19	Y19	Z19	
367	1.83	302.12439	1274.2439	-1215.7241	160.96523	1196.6824	-1207.955	330.54291	1191.5325	-1361.2183	221.82669	830.31213	-1084.4543	221.89139	840.24939	-1344.4751	388.22534	901.89124	-1165.0079	390.34787	898.31818	-1239.1849	210.28322	552.17542	-952.11658	183.82677	411.57175	-938.44055	254.5771	210.22774	-933.90753	302.07254	63.502289	-963.27612	324.00323	50.775955	-1023.7225	162.4915	38.436535	-934.62781	272.27832	710.16669	-1420.6373	204.03343	409.68463	-1475.8566	229.26619	325.18253	-1486.0564	299.22903	72.879082	-1448.725	323.07056	50.561798	-1381.3311	163.14969	41.03973	-1477.9496
368	1.835	302.26874	1276.7794	-1215.6111	160.96393	1199.4349	-1207.8354	330.74451	1193.9265	-1361.0425	220.88838	832.8349	-1084.4288	221.35391	842.37952	-1343.7545	387.33746	904.37378	-1164.6942	389.522	900.72461	-1238.9639	210.86333	553.12988	-952.98047	185.58057	412.18948	-939.96338	255.38213	210.4146	-934.52002	302.12808	63.486115	-963.25171	324.13062	50.728195	-1023.7309	162.50401	38.44297	-934.69598	271.88486	711.70129	-1420.0514	206.08464	410.43347	-1474.3257	231.12987	325.71964	-1484.9325	299.42154	72.938965	-1448.7225	323.18378	50.508076	-1381.3374	163.14496	41.04369	-1477.8474
369	1.84	302.40698	1279.1398	-1215.5126	160.97008	1201.9775	-1207.688	330.83133	1196.2571	-1360.7875	219.96652	835.16119	-1084.2312	220.23192	845.11072	-1344.0792	386.40076	906.73108	-1164.2349	388.1416	903.38495	-1237.9764	211.2757	553.51123	-954.12506	187.3521	412.75565	-941.41418	256.17194	210.61937	-935.16412	302.13904	63.448189	-963.18848	324.25281	50.729744	-1023.7261	162.52242	38.392921	-934.7243	271.51901	713.26697	-1419.5209	208.1187	411.22339	-1472.8098	232.90266	326.33792	-1483.751	299.56625	73.027992	-1448.6815	323.33582	50.489063	-1381.3359	163.15865	41.111935	-1477.8245
370	1.845	302.48318	1281.4559	-1215.319	161.03162	1204.5116	-1207.6071	330.89218	1198.48	-1360.5715	218.94904	837.41913	-1084.0186	219.39383	847.40637	-1343.8135	385.47626	908.97998	-1163.7421	387.61395	905.21344	-1238.3223	211.82954	554.49481	-954.9021	189.05219	413.28079	-942.95117	256.92584	210.79286	-935.78741	302.20822	63.424065	-963.16559	324.33252	50.673988	-1023.6943	162.55087	38.351776	-934.75946	271.16476	714.77612	-1419.0128	210.11592	411.87985	-1471.274	234.64262	326.85526	-1482.5212	299.74026	73.115616	-1448.6534	323.49313	50.464966	-1381.4026	163.18315	41.087013	-1477.7312
371	1.85	302.62	1283.694	-1215.1539	160.92783	1206.9542	-1207.3859	331.04425	1200.5983	-1360.3617	217.97437	839.74982	-1083.7462	218.59769	849.53729	-1343.5948	384.61548	911.16406	-1163.6411	386.88733	907.54669	-1238.1702	212.29408	555.02332	-956.01575	190.82742	413.89688	-944.47052	257.67987	211.13467	-936.37634	302.30936	63.354797	-963.1814	324.45178	50.503784	-1023.6489	162.56538	38.346493	-934.89978	270.73599	716.04376	-1418.4045	212.13483	412.47058	-1469.7264	236.41191	327.40176	-1481.427	299.93192	73.085503	-1448.6248	323.63873	50.427467	-1381.5072	163.18898	41.054012	-1477.683
372	1.855	302.78162	1285.8049	-1215.0238	160.86378	1209.3528	-1207.3619	330.82617	1202.1444	-1359.6057	216.81007	842.0777	-1083.4393	217.78079	851.64191	-1343.3704	383.72891	913.2771	-1163.6401	386.06403	909.75775	-1237.9456	212.81221	555.95868	-956.81403	192.5407	414.44971	-945.91681	258.4205	211.38524	-936.9494	302.43384	63.369728	-963.20099	324.55557	50.335583	-1023.5892	162.53818	38.32803	-934.96368	270.2984	717.13257	-1417.7706	214.09677	412.99921	-1468.1697	238.11754	327.78378	-1480.2511	300.08679	73.1007	-1448.5718	323.76874	50.361378	-1381.5725	163.2191	40.967243	-1477.6248
373	1.86	302.93112	1287.8783	-1214.8463	161.13603	1211.4626	-1207.3236	331.30521	1204.5527	-1359.8618	215.8472	844.21442	-1083.3	216.7431	853.55225	-1343.2954	382.88428	915.31244	-1163.5735	385.25601	911.82214	-1237.7734	213.30536	556.4505	-957.91418	194.17416	414.9892	-947.36493	259.15555	211.64011	-937.52899	302.54004	63.372925	-963.23657	324.62799	50.27243	-1023.5404	162.52824	38.310261	-935.06696	269.96701	718.46362	-1417.3322	216.00865	413.53818	-1466.5771	239.67421	328.19043	-1479.0371	300.26434	73.101028	-1448.5527	323.89117	50.32196	-1381.7117	163.24394	40.914574	-1477.566
374	1.865	303.09763	1289.8574	-1214.6987	161.20386	1213.5629	-1207.1849	331.42874	1206.4747	-1359.5962	214.89592	846.27289	-1083.1078	216.12701	855.65515	-1342.9229	381.99637	917.27832	-1163.4531	384.41751	913.86945	-1237.5222	213.79099	557.07068	-958.81207	195.79758	415.36597	-948.914	259.87985	211.88052	-938.12335	302.64978	63.337715	-963.27008	324.71246	50.216404	-1023.4515	162.51053	38.309998	-935.09814	269.46832	719.67877	-1416.6937	217.87099	414.19864	-1464.9746	241.27095	328.65375	-1477.894	300.44855	73.144234	-1448.5062	324.04785	50.293617	-1381.7689	163.24683	40.90966	-1477.4668
375	1.87	303.25574	1291.7506	-1214.5042	161.11909	1215.7089	-1206.9482	331.52966	1208.2666	-1359.3115	213.92395	848.16089	-1082.9548	215.32259	857.63751	-1342.7205	381.12604	919.11981	-1162.9847	383.09625	915.91766	-1236.6124	214.41544	557.75488	-959.88818	197.41168	415.75851	-950.29449	260.64172	212.08832	-938.73584	302.70523	63.341221	-963.2536	324.83395	50.221436	-1023.4019	162.48526	38.302544	-935.10992	269.06647	720.82886	-1416.2318	219.74341	414.85284	-1463.4482	242.79472	329.13583	-1476.6938	300.63895	73.231071	-1448.4478	324.13718	50.273769	-1381.7505	163.22156	40.982567	-1477.4495
376	1.875	303.4328	1293.4987	-1214.2817	161.49489	1217.3436	-1207.0475	331.35834	1209.4546	-1358.611	212.84866	850.02527	-1082.7164	214.48329	859.4209	-1342.5106	380.2366	920.86493	-1162.7437	382.74103	917.42737	-1237.0979	214.84224	558.01086	-960.97443	198.93071	416.13712	-951.65149	261.31686	212.28131	-939.29352	302.78549	63.280643	-963.25311	324.91162	50.091816	-1023.3148	162.49104	38.2686	-935.20874	268.64273	721.82977	-1415.651	221.56094	415.28775	-1461.8817	244.39053	329.52963	-1475.5345	300.76901	73.281364	-1448.4076	324.24176	50.197811	-1381.7969	163.23639	40.96262	-1477.4017
377	1.88	303.65219	1295.0961	-1214.157	161.42589	1219.4382	-1206.8942	331.83765	1211.4608	-1358.8629	211.91916	851.797	-1082.7054	213.94521	860.88391	-1341.834	379.40823	922.46429	-1162.854	381.97934	919.19257	-1236.8868	215.40868	558.68658	-961.92511	200.4861	416.42563	-953.1535	261.99426	212.45476	-939.91425	302.86176	63.251972	-963.25482	325.00394	49.922665	-1023.2505	162.51555	38.210705	-935.30585	268.20453	722.69604	-1415.1718	223.4236	415.62897	-1460.3558	245.89725	329.76834	-1474.3845	300.93539	73.189758	-1448.3739	324.37222	50.097965	-1381.9557	163.23064	40.862873	-1477.3578
378	1.885	303.85904	1296.6384	-1213.983	161.27509	1221.2327	-1206.589	332.05807	1212.9443	-1358.6482	210.96016	853.46887	-1082.5612	212.95619	862.729	-1342.1473	378.59644	924.05859	-1162.8699	381.20459	920.77917	-1236.6962	215.84901	558.93896	-963.00195	201.97917	416.79901	-954.4704	262.63724	212.6965	-940.44958	302.96927	63.245728	-963.28973	325.08813	49.840885	-1023.2154	162.46729	38.182972	-935.36963	267.77689	723.61078	-1414.639	225.22183	415.89539	-1458.8007	247.43922	330.03708	-1473.1736	301.08148	73.146492	-1448.3115	324.48361	49.987015	-1382.026	163.22581	40.798389	-1477.3198
379	1.89	304.07715	1298.0449	-1213.8148	161.49783	1223	-1206.5806	331.82654	1213.9302	-1357.9012	209.98285	855.01172	-1082.5072	212.19449	864.26404	-1341.9717	377.75552	925.59485	-1162.4933	379.86115	922.24634	-1235.8685	216.42932	559.51526	-963.85144	203.48888	417.00778	-955.81793	263.34024	212.85162	-941.08313	302.98529	63.242092	-963.24792	325.15302	49.819	-1023.1701	162.47415	38.153908	-935.4306	267.39725	724.46942	-1414.2229	227.00809	416.32556	-1457.274	248.97716	330.43024	-1472.0353	301.21417	73.227417	-1448.2235	324.58548	49.959267	-1381.9709	163.23424	40.842537	-1477.2706
